<svg width="15" height="14" viewBox="0 0 15 14" fill="none" xmlns="http://www.w3.org/2000/svg">
<path fill-rule="evenodd" clip-rule="evenodd" d="M5.68234 0.999996C5.68234 0.769305 5.56308 0.555008 5.36702 0.433429C5.17097 0.311849 4.926 0.300267 4.71935 0.402807C3.552 0.98205 2.56964 1.87583 1.88298 2.98341C1.19643 4.09082 0.832788 5.36794 0.833009 6.6709C0.831984 8.24942 1.36487 9.78189 2.34506 11.0192C3.32525 12.2565 4.69511 13.126 6.23198 13.4862C7.76885 13.8464 9.38238 13.6763 10.8103 13.0034C12.2382 12.3305 13.3966 11.1944 14.0971 9.77985C14.1994 9.5732 14.1877 9.32835 14.0661 9.13242C13.9445 8.9365 13.7303 8.81733 13.4997 8.81733C10.7654 8.81733 8.84464 8.13947 7.60234 6.8971C6.36004 5.65473 5.68234 3.73392 5.68234 0.999996ZM3.01621 3.68596C3.38004 3.0991 3.84644 2.5864 4.39026 2.17072C4.56441 4.55818 5.29411 6.47441 6.65951 7.83988C8.02515 9.20561 9.94181 9.93547 12.3301 10.1095C11.7826 10.8272 11.068 11.408 10.2419 11.7972C9.08617 12.3419 7.78019 12.4796 6.53625 12.188C5.29231 11.8965 4.18355 11.1928 3.39019 10.1913C2.59683 9.18979 2.16551 7.94941 2.16634 6.67176C2.16607 5.61696 2.46042 4.58245 3.01621 3.68596Z" fill="white"/>
</svg>
